<svg width="1000" height="137" viewBox="0 0 1000 137" fill="none" xmlns="http://www.w3.org/2000/svg">
<g clip-path="url(#clip0_3384_225)">
<rect y="77" width="50" height="60" fill="#EF5332"/>
<rect x="2" y="79" width="46" height="56" stroke="black" stroke-opacity="0.23" stroke-width="4"/>
<rect x="50" y="77" width="800" height="60" fill="white"/>
<rect x="52" y="79" width="796" height="56" stroke="black" stroke-opacity="0.23" stroke-width="4"/>
<rect x="850" y="77" width="150" height="60" fill="#7A7A7A"/>
<rect x="852" y="79" width="146" height="56" stroke="black" stroke-opacity="0.23" stroke-width="4"/>
<path d="M11.4215 37.5754H27.6677L26.8308 44H1.92V37.9692L18.1169 16.1108H3.69231V9.88308H27.2985V15.9631L11.4215 37.5754ZM54.9836 36.4677C54.9836 37.4523 55.1148 38.1662 55.3774 38.6092C55.6564 39.0523 56.0995 39.3887 56.7066 39.6185L55.1066 44.7385C53.5641 44.5908 52.2595 44.2544 51.1928 43.7292C50.1425 43.1877 49.3138 42.3754 48.7066 41.2923C47.7056 42.4903 46.4256 43.3846 44.8666 43.9754C43.3077 44.5497 41.7159 44.8369 40.0912 44.8369C37.4 44.8369 35.2502 44.0738 33.642 42.5477C32.0502 41.0051 31.2543 39.0277 31.2543 36.6154C31.2543 33.7764 32.362 31.5856 34.5774 30.0431C36.8092 28.5005 39.9436 27.7292 43.9805 27.7292H47.5005V26.7446C47.5005 24.0697 45.7774 22.7323 42.3312 22.7323C41.4943 22.7323 40.4195 22.8554 39.1066 23.1015C37.7938 23.3313 36.481 23.6677 35.1682 24.1108L33.3712 18.9415C35.0615 18.3015 36.8174 17.8174 38.6389 17.4892C40.4769 17.161 42.1179 16.9969 43.562 16.9969C47.4512 16.9969 50.323 17.7928 52.1774 19.3846C54.0482 20.96 54.9836 23.241 54.9836 26.2277V36.4677ZM42.7743 39.2738C43.6112 39.2738 44.4892 39.0277 45.4082 38.5354C46.3271 38.0267 47.0246 37.3128 47.5005 36.3938V32.16H45.5805C43.4143 32.16 41.8225 32.4964 40.8051 33.1692C39.7877 33.8256 39.2789 34.7938 39.2789 36.0738C39.2789 37.0749 39.5825 37.8626 40.1897 38.4369C40.8133 38.9949 41.6748 39.2738 42.7743 39.2738ZM76.9825 16.9969C79.2635 16.9969 81.1015 17.5631 82.4963 18.6954C83.8912 19.8277 84.9087 21.4277 85.5487 23.4954C86.2051 25.5631 86.5333 28.0164 86.5333 30.8554C86.5333 33.5467 86.1394 35.9508 85.3517 38.0677C84.564 40.1682 83.4235 41.8256 81.9302 43.04C80.4369 44.2379 78.6235 44.8369 76.4902 44.8369C73.9466 44.8369 71.8789 43.9262 70.2871 42.1046V54.0923L62.5087 54.9046V17.8585H69.401L69.7456 20.7877C70.8122 19.4256 71.9774 18.4574 73.241 17.8831C74.5046 17.2923 75.7517 16.9969 76.9825 16.9969ZM74.5702 22.7323C73.6676 22.7323 72.8717 23.0031 72.1825 23.5446C71.4933 24.0862 70.8615 24.8246 70.2871 25.76V36.7877C70.8287 37.5918 71.3948 38.1826 71.9856 38.56C72.5928 38.9374 73.3066 39.1262 74.1271 39.1262C75.5056 39.1262 76.5804 38.5026 77.3517 37.2554C78.123 35.9918 78.5087 33.8913 78.5087 30.9538C78.5087 28.7877 78.3528 27.1138 78.041 25.9323C77.7292 24.7344 77.2779 23.9056 76.6871 23.4462C76.0963 22.9703 75.3907 22.7323 74.5702 22.7323ZM137.817 36.64H127.823L126.027 44H117.583L128.02 9.88308H137.817L148.254 44H139.614L137.817 36.64ZM129.103 30.7815H136.488L132.796 15.6923L129.103 30.7815ZM175.299 20.2462C175.299 22.6913 174.635 24.6769 173.305 26.2031C171.976 27.7128 170.36 28.8451 168.456 29.6L177.392 44H168.259L160.875 30.9538H158.585V44H150.512V9.88308H161.244C165.888 9.88308 169.392 10.7282 171.755 12.4185C174.118 14.1087 175.299 16.718 175.299 20.2462ZM166.979 20.2462C166.979 18.6051 166.495 17.4154 165.527 16.6769C164.575 15.9221 163.156 15.5446 161.269 15.5446H158.585V25.4154H161.589C163.344 25.4154 164.682 25.0051 165.601 24.1846C166.52 23.3641 166.979 22.0513 166.979 20.2462ZM205.933 20.681C207.662 20.681 209.106 20.9819 210.266 21.5836C211.436 22.1853 212.312 22.9839 212.891 23.9795C213.482 24.9641 213.778 26.0362 213.778 27.1959C213.778 28.1149 213.619 29.0174 213.302 29.9036C212.995 30.7788 212.487 31.7087 211.776 32.6933C211.064 33.667 210.118 34.7501 208.937 35.9426C207.766 37.135 206.316 38.5026 204.588 40.0451H214.303L213.745 44H198.631V40.3241C200.502 38.519 202.066 36.9655 203.324 35.6636C204.593 34.3617 205.605 33.2403 206.36 32.2995C207.126 31.3477 207.673 30.5053 208.001 29.7723C208.329 29.0393 208.493 28.3337 208.493 27.6554C208.493 26.7364 208.225 26.0089 207.689 25.4728C207.164 24.9368 206.415 24.6687 205.441 24.6687C204.577 24.6687 203.827 24.8492 203.193 25.2103C202.558 25.5713 201.946 26.1566 201.355 26.9662L198.171 24.5703C199.025 23.3887 200.075 22.4479 201.322 21.7477C202.569 21.0366 204.106 20.681 205.933 20.681ZM219.303 35.7456V31.7087H233.514V35.7456H219.303ZM253.153 21.2554L252.578 24.9641H244.258V29.8708C244.816 29.6082 245.391 29.4222 245.981 29.3128C246.572 29.2034 247.119 29.1487 247.622 29.1487C248.793 29.1487 249.86 29.4441 250.822 30.0349C251.796 30.6256 252.567 31.4735 253.136 32.5785C253.716 33.6834 254.006 35.0017 254.006 36.5333C254.006 38.065 253.628 39.4379 252.874 40.6523C252.13 41.8667 251.09 42.8239 249.756 43.5241C248.421 44.2133 246.862 44.5579 245.079 44.5579C243.427 44.5579 241.966 44.2516 240.697 43.639C239.428 43.0154 238.372 42.1894 237.53 41.161L240.517 38.4369C241.064 39.1371 241.693 39.6732 242.404 40.0451C243.126 40.4062 243.881 40.5867 244.668 40.5867C245.872 40.5867 246.835 40.2202 247.557 39.4872C248.29 38.7542 248.656 37.7969 248.656 36.6154C248.656 35.215 248.372 34.2195 247.803 33.6287C247.245 33.027 246.506 32.7262 245.587 32.7262C245.172 32.7262 244.729 32.7809 244.258 32.8903C243.788 32.9997 243.301 33.1966 242.798 33.481H239.302V21.2554H253.153ZM269.886 20.5005L272.66 21.6492L261.451 44.9518L258.711 43.8031L269.886 20.5005ZM260.746 20.681C262.212 20.681 263.355 21.1515 264.175 22.0923C264.996 23.0222 265.406 24.2694 265.406 25.8338C265.406 27.3874 264.996 28.6291 264.175 29.559C263.355 30.4889 262.212 30.9538 260.746 30.9538C259.269 30.9538 258.115 30.4889 257.283 29.559C256.463 28.6291 256.052 27.3874 256.052 25.8338C256.052 24.335 256.463 23.1043 257.283 22.1415C258.115 21.1679 259.269 20.681 260.746 20.681ZM260.746 23.2246C260.21 23.2246 259.854 23.4598 259.679 23.9303C259.515 24.3897 259.433 25.0243 259.433 25.8338C259.433 26.6106 259.526 27.2342 259.712 27.7046C259.898 28.175 260.242 28.4103 260.746 28.4103C261.293 28.4103 261.648 28.186 261.812 27.7374C261.976 27.2779 262.059 26.6434 262.059 25.8338C262.059 24.9586 261.976 24.3077 261.812 23.881C261.648 23.4434 261.293 23.2246 260.746 23.2246ZM270.822 33.9241C272.288 33.9241 273.431 34.3945 274.251 35.3354C275.072 36.2653 275.482 37.5125 275.482 39.0769C275.482 40.6304 275.072 41.8721 274.251 42.8021C273.431 43.732 272.288 44.1969 270.822 44.1969C269.345 44.1969 268.19 43.732 267.359 42.8021C266.539 41.8721 266.128 40.6304 266.128 39.0769C266.128 37.5781 266.539 36.3474 267.359 35.3846C268.19 34.4109 269.345 33.9241 270.822 33.9241ZM270.822 36.4677C270.286 36.4677 269.93 36.7029 269.755 37.1733C269.591 37.6328 269.509 38.2674 269.509 39.0769C269.509 39.8537 269.602 40.4773 269.788 40.9477C269.974 41.4181 270.318 41.6533 270.822 41.6533C271.369 41.6533 271.724 41.4291 271.888 40.9805C272.052 40.521 272.134 39.8865 272.134 39.0769C272.134 38.2017 272.052 37.5508 271.888 37.1241C271.724 36.6865 271.369 36.4677 270.822 36.4677Z" fill="#EF5332"/>
<path d="M494.694 16.0615V44H486.621V16.0615H477.045V9.88308H504.664L503.827 16.0615H494.694ZM516.693 6.70769V20.4431C518.876 18.1456 521.436 16.9969 524.373 16.9969C526.704 16.9969 528.484 17.6779 529.715 19.04C530.946 20.4021 531.561 22.3221 531.561 24.8V44H523.783V26.9662C523.783 25.3908 523.602 24.2913 523.241 23.6677C522.896 23.0441 522.24 22.7323 521.272 22.7323C520.451 22.7323 519.664 23.0195 518.909 23.5938C518.17 24.1518 517.432 24.9231 516.693 25.9077V44H508.915V7.47077L516.693 6.70769ZM538.692 44V38.7815H542.138V23.0277H538.692V17.8585H548.071L549.498 23.7415C550.434 21.4933 551.624 19.8195 553.068 18.72C554.528 17.6205 556.309 17.0708 558.409 17.0708C559.295 17.0708 560.083 17.1446 560.772 17.2923C561.462 17.4236 562.11 17.6123 562.717 17.8585L561.265 28.7877H556.391V23.9631C554.914 24.2256 553.617 25.0297 552.502 26.3754C551.386 27.7046 550.524 29.3456 549.917 31.2985V38.7815H555.086V44H538.692ZM574.722 33.1938C574.985 35.3272 575.682 36.8615 576.814 37.7969C577.947 38.7159 579.342 39.1754 580.999 39.1754C582.197 39.1754 583.354 38.9785 584.47 38.5846C585.586 38.1908 586.66 37.6656 587.694 37.0092L590.82 41.2431C589.59 42.2933 588.096 43.1549 586.34 43.8277C584.601 44.5005 582.615 44.8369 580.384 44.8369C577.397 44.8369 574.894 44.2462 572.876 43.0646C570.857 41.8667 569.339 40.2256 568.322 38.1415C567.305 36.0574 566.796 33.6615 566.796 30.9538C566.796 28.3774 567.288 26.039 568.273 23.9385C569.257 21.8215 570.693 20.1395 572.58 18.8923C574.484 17.6287 576.806 16.9969 579.547 16.9969C582.041 16.9969 584.199 17.5303 586.02 18.5969C587.858 19.6636 589.278 21.1979 590.279 23.2C591.296 25.2021 591.805 27.6062 591.805 30.4123C591.805 30.8554 591.789 31.3313 591.756 31.84C591.739 32.3487 591.707 32.8 591.657 33.1938H574.722ZM579.547 22.2154C578.152 22.2154 577.028 22.7159 576.174 23.7169C575.321 24.7179 574.804 26.3179 574.624 28.5169H584.224C584.207 26.6133 583.838 25.0872 583.116 23.9385C582.394 22.7897 581.204 22.2154 579.547 22.2154ZM604.253 33.1938C604.516 35.3272 605.213 36.8615 606.346 37.7969C607.478 38.7159 608.873 39.1754 610.53 39.1754C611.728 39.1754 612.885 38.9785 614.001 38.5846C615.117 38.1908 616.192 37.6656 617.226 37.0092L620.352 41.2431C619.121 42.2933 617.628 43.1549 615.872 43.8277C614.132 44.5005 612.147 44.8369 609.915 44.8369C606.928 44.8369 604.426 44.2462 602.407 43.0646C600.389 41.8667 598.871 40.2256 597.853 38.1415C596.836 36.0574 596.327 33.6615 596.327 30.9538C596.327 28.3774 596.819 26.039 597.804 23.9385C598.789 21.8215 600.225 20.1395 602.112 18.8923C604.015 17.6287 606.337 16.9969 609.078 16.9969C611.572 16.9969 613.73 17.5303 615.552 18.5969C617.39 19.6636 618.809 21.1979 619.81 23.2C620.828 25.2021 621.336 27.6062 621.336 30.4123C621.336 30.8554 621.32 31.3313 621.287 31.84C621.271 32.3487 621.238 32.8 621.189 33.1938H604.253ZM609.078 22.2154C607.683 22.2154 606.559 22.7159 605.706 23.7169C604.852 24.7179 604.335 26.3179 604.155 28.5169H613.755C613.738 26.6133 613.369 25.0872 612.647 23.9385C611.925 22.7897 610.735 22.2154 609.078 22.2154ZM632.874 39.3477C632.874 38.3467 633.12 37.4359 633.612 36.6154C634.105 35.7785 634.769 35.1138 635.606 34.6215C636.443 34.1128 637.362 33.8585 638.363 33.8585C639.38 33.8585 640.299 34.1128 641.12 34.6215C641.957 35.1138 642.621 35.7785 643.114 36.6154C643.606 37.4359 643.852 38.3467 643.852 39.3477C643.852 40.3323 643.606 41.2431 643.114 42.08C642.621 42.9169 641.957 43.5815 641.12 44.0738C640.299 44.5826 639.38 44.8369 638.363 44.8369C637.362 44.8369 636.443 44.5826 635.606 44.0738C634.769 43.5815 634.105 42.9169 633.612 42.08C633.12 41.2431 632.874 40.3323 632.874 39.3477ZM671.34 4.17231C672.686 4.17231 673.786 4.59077 674.639 5.42769C675.492 6.26462 675.919 7.30667 675.919 8.55385C675.919 9.80103 675.492 10.8513 674.639 11.7046C673.786 12.5415 672.686 12.96 671.34 12.96C669.978 12.96 668.862 12.5415 667.993 11.7046C667.139 10.8513 666.713 9.80103 666.713 8.55385C666.713 7.30667 667.139 6.26462 667.993 5.42769C668.862 4.59077 669.978 4.17231 671.34 4.17231ZM676.387 17.8585V36.4185C676.387 40.1928 675.681 43.2944 674.27 45.7231C672.875 48.1682 670.791 50.1046 668.017 51.5323C665.26 52.9764 661.847 54.1005 657.777 54.9046L656.547 48.9723C659.189 48.3651 661.404 47.6103 663.193 46.7077C664.981 45.8051 666.327 44.5826 667.23 43.04C668.149 41.481 668.608 39.4379 668.608 36.9108V23.1754H659.205V17.8585H676.387ZM696.589 39.2738C697.885 39.2738 698.927 39.0687 699.715 38.6585C700.519 38.2482 700.921 37.6328 700.921 36.8123C700.921 36.2544 700.765 35.7867 700.453 35.4092C700.141 35.0318 699.542 34.6708 698.656 34.3262C697.77 33.9815 696.457 33.5713 694.718 33.0954C692.322 32.4554 690.369 31.5364 688.859 30.3385C687.366 29.1405 686.619 27.3846 686.619 25.0708C686.619 22.7405 687.588 20.8123 689.524 19.2862C691.477 17.76 694.291 16.9969 697.967 16.9969C700.297 16.9969 702.324 17.3005 704.047 17.9077C705.787 18.4985 707.288 19.2533 708.552 20.1723L705.45 24.7508C704.367 24.0779 703.202 23.5446 701.955 23.1508C700.708 22.7405 699.452 22.5354 698.189 22.5354C695.694 22.5354 694.447 23.2082 694.447 24.5538C694.447 24.9969 694.603 25.3826 694.915 25.7108C695.243 26.0226 695.85 26.3508 696.736 26.6954C697.622 27.0236 698.919 27.4338 700.625 27.9262C702.316 28.4021 703.784 28.9518 705.032 29.5754C706.295 30.199 707.272 31.0359 707.961 32.0862C708.65 33.12 708.995 34.4903 708.995 36.1969C708.995 38.1005 708.429 39.7005 707.296 40.9969C706.164 42.2769 704.662 43.2369 702.792 43.8769C700.921 44.5169 698.87 44.8369 696.638 44.8369C694.111 44.8369 691.879 44.4759 689.942 43.7538C688.006 43.0318 686.357 42.08 684.995 40.8985L688.909 36.5169C689.926 37.3046 691.075 37.961 692.355 38.4862C693.651 39.0113 695.062 39.2738 696.589 39.2738ZM740.54 44.5251L735.617 42.999L744.101 25.161H734.107V21.2554H749.352V24.7672L740.54 44.5251ZM761.409 20.681C764.122 20.681 766.168 21.7313 767.546 23.8318C768.935 25.9214 769.63 28.8369 769.63 32.5785C769.63 36.3309 768.935 39.2684 767.546 41.3908C766.168 43.5022 764.122 44.5579 761.409 44.5579C758.674 44.5579 756.617 43.5022 755.238 41.3908C753.871 39.2684 753.187 36.3309 753.187 32.5785C753.187 28.8369 753.871 25.9214 755.238 23.8318C756.617 21.7313 758.674 20.681 761.409 20.681ZM761.409 24.439C760.249 24.439 759.401 25.0626 758.865 26.3097C758.329 27.546 758.061 29.6356 758.061 32.5785C758.061 33.5412 758.077 34.4 758.11 35.1549C758.143 35.8988 758.192 36.5607 758.258 37.1405L763.805 25.5385C763.542 25.1227 763.214 24.8383 762.82 24.6851C762.437 24.521 761.967 24.439 761.409 24.439ZM764.724 32.5785C764.724 31.3203 764.696 30.2591 764.641 29.3949L759.407 40.2092C759.647 40.439 759.932 40.5976 760.26 40.6851C760.599 40.7726 760.982 40.8164 761.409 40.8164C762.185 40.8164 762.814 40.5538 763.296 40.0287C763.788 39.5036 764.149 38.6393 764.379 37.4359C764.609 36.2215 764.724 34.6024 764.724 32.5785ZM773.991 35.7456V31.7087H788.202V35.7456H773.991ZM808.349 26.7036C808.349 27.7648 808.064 28.6783 807.495 29.4441C806.927 30.2099 806.035 30.9374 804.821 31.6267C806.352 32.3925 807.468 33.3005 808.168 34.3508C808.879 35.3901 809.235 36.5497 809.235 37.8297C809.235 39.0003 808.912 40.0998 808.267 41.1282C807.632 42.1456 806.68 42.9716 805.411 43.6062C804.153 44.2407 802.578 44.5579 800.685 44.5579C798.836 44.5579 797.288 44.2516 796.041 43.639C794.805 43.0263 793.875 42.2222 793.251 41.2267C792.639 40.2202 792.332 39.1316 792.332 37.961C792.332 36.6591 792.71 35.5268 793.465 34.5641C794.22 33.6014 795.237 32.841 796.517 32.2831C795.357 31.5391 794.515 30.7843 793.99 30.0185C793.476 29.2417 793.219 28.2243 793.219 26.9662C793.219 25.6752 793.552 24.5593 794.22 23.6185C794.887 22.6776 795.789 21.9556 796.927 21.4523C798.076 20.9381 799.372 20.681 800.816 20.681C802.293 20.681 803.595 20.9272 804.722 21.4195C805.86 21.9009 806.746 22.5956 807.381 23.5036C808.026 24.4007 808.349 25.4674 808.349 26.7036ZM798.158 26.9662C798.158 27.7648 798.426 28.4267 798.962 28.9518C799.498 29.466 800.335 29.9364 801.473 30.3631C802.217 29.8161 802.726 29.28 802.999 28.7549C803.273 28.2188 803.409 27.6335 803.409 26.999C803.409 26.1894 803.19 25.5221 802.753 24.9969C802.326 24.4718 801.681 24.2092 800.816 24.2092C799.974 24.2092 799.318 24.4444 798.847 24.9149C798.388 25.3744 798.158 26.0581 798.158 26.9662ZM804.049 37.7969C804.049 37.0421 803.896 36.4294 803.59 35.959C803.294 35.4885 802.829 35.0838 802.195 34.7446C801.56 34.3945 800.729 34.039 799.701 33.6779C799.033 34.1046 798.503 34.6462 798.109 35.3026C797.715 35.959 797.518 36.7412 797.518 37.6492C797.518 38.5901 797.792 39.3614 798.339 39.9631C798.896 40.5538 799.722 40.8492 800.816 40.8492C801.943 40.8492 802.764 40.5484 803.278 39.9467C803.792 39.334 804.049 38.6174 804.049 37.7969ZM827.528 21.2554L826.953 24.9641H818.633V29.8708C819.191 29.6082 819.766 29.4222 820.356 29.3128C820.947 29.2034 821.494 29.1487 821.997 29.1487C823.168 29.1487 824.235 29.4441 825.197 30.0349C826.171 30.6256 826.942 31.4735 827.511 32.5785C828.091 33.6834 828.381 35.0017 828.381 36.5333C828.381 38.065 828.003 39.4379 827.249 40.6523C826.505 41.8667 825.465 42.8239 824.131 43.5241C822.796 44.2133 821.237 44.5579 819.454 44.5579C817.802 44.5579 816.341 44.2516 815.072 43.639C813.803 43.0154 812.747 42.1894 811.905 41.161L814.892 38.4369C815.439 39.1371 816.068 39.6732 816.779 40.0451C817.501 40.4062 818.256 40.5867 819.043 40.5867C820.247 40.5867 821.21 40.2202 821.932 39.4872C822.665 38.7542 823.031 37.7969 823.031 36.6154C823.031 35.215 822.747 34.2195 822.178 33.6287C821.62 33.027 820.881 32.7262 819.962 32.7262C819.547 32.7262 819.104 32.7809 818.633 32.8903C818.163 32.9997 817.676 33.1966 817.173 33.481H813.677V21.2554H827.528ZM844.261 20.5005L847.035 21.6492L835.826 44.9518L833.086 43.8031L844.261 20.5005ZM835.121 20.681C836.587 20.681 837.73 21.1515 838.55 22.0923C839.371 23.0222 839.781 24.2694 839.781 25.8338C839.781 27.3874 839.371 28.6291 838.55 29.559C837.73 30.4889 836.587 30.9538 835.121 30.9538C833.644 30.9538 832.49 30.4889 831.658 29.559C830.838 28.6291 830.427 27.3874 830.427 25.8338C830.427 24.335 830.838 23.1043 831.658 22.1415C832.49 21.1679 833.644 20.681 835.121 20.681ZM835.121 23.2246C834.585 23.2246 834.229 23.4598 834.054 23.9303C833.89 24.3897 833.808 25.0243 833.808 25.8338C833.808 26.6106 833.901 27.2342 834.087 27.7046C834.273 28.175 834.617 28.4103 835.121 28.4103C835.668 28.4103 836.023 28.186 836.187 27.7374C836.351 27.2779 836.434 26.6434 836.434 25.8338C836.434 24.9586 836.351 24.3077 836.187 23.881C836.023 23.4434 835.668 23.2246 835.121 23.2246ZM845.197 33.9241C846.663 33.9241 847.806 34.3945 848.626 35.3354C849.447 36.2653 849.857 37.5125 849.857 39.0769C849.857 40.6304 849.447 41.8721 848.626 42.8021C847.806 43.732 846.663 44.1969 845.197 44.1969C843.72 44.1969 842.565 43.732 841.734 42.8021C840.914 41.8721 840.503 40.6304 840.503 39.0769C840.503 37.5781 840.914 36.3474 841.734 35.3846C842.565 34.4109 843.72 33.9241 845.197 33.9241ZM845.197 36.4677C844.661 36.4677 844.305 36.7029 844.13 37.1733C843.966 37.6328 843.884 38.2674 843.884 39.0769C843.884 39.8537 843.977 40.4773 844.163 40.9477C844.349 41.4181 844.693 41.6533 845.197 41.6533C845.744 41.6533 846.099 41.4291 846.263 40.9805C846.427 40.521 846.509 39.8865 846.509 39.0769C846.509 38.2017 846.427 37.5508 846.263 37.1241C846.099 36.6865 845.744 36.4677 845.197 36.4677Z" fill="white"/>
<line x1="17" y1="77" x2="17" y2="49" stroke="#B84027" stroke-width="4"/>
<line x1="491" y1="77" x2="491" y2="49" stroke="#C4C4C4" stroke-width="4"/>
</g>
<defs>
<clipPath id="clip0_3384_225">
<rect width="1000" height="137" fill="white"/>
</clipPath>
</defs>
</svg>
